<?xml version="1.0" encoding="utf-8"?>
<!-- Generator: Adobe Illustrator 22.0.1, SVG Export Plug-In . SVG Version: 6.00 Build 0)  -->
<svg version="1.1" id="Layer_1" xmlns="http://www.w3.org/2000/svg" xmlns:xlink="http://www.w3.org/1999/xlink" x="0px" y="0px"
	 viewBox="0 0 477 175.7" style="enable-background:new 0 0 477 175.7;" xml:space="preserve">
<style type="text/css">
	.st0{fill:#00AC7A;}
</style>
<title>Asset 3</title>
<g id="Layer_2_1_">
	<g id="Layer_1-2">
		<path class="st0" d="M49.1,33.9c0,9.3,0,18.5,0,27.8c0.2,1.1,0.5,2.3,0.9,3.3c0.9-0.6,1.8-1.3,2.7-2.1c4.6-5.2,10.3-9.3,16.8-11.9
			c4.2-1.6,8.5-2.9,12.8-3.9c5.5-1.1,11.1-1,16.6,0.2c3.2,0.8,6.3,1.8,9.3,3.1c5.6,2.4,9.7,6.6,12.9,11.7c4.8,7.6,6.9,16,7.3,24.8
			c0.4,10.1,0.2,20.3,0.5,30.4c0.4,14,0.9,28,1.5,42.1c0.1,2-1,2.2-2.5,2.2h-21c-5,0-9.9,0-14.9,0.1c-1.6,0.2-3.1-0.8-3.5-2.4
			c-1.5-5.1-3.5-10.2-4.6-15.4c-0.8-4.8-1.2-9.6-1-14.4c0.1-5.1,0.6-10.2,1.4-15.2c1-4.9,2.4-9.7,3.9-14.5c0.9-3.1,2-6.1,3.2-9.1
			c1-2.7,2.3-5.2,3.5-7.8c0.2-0.4,0.4-0.8,0.6-1.2c0.4-1.4,0.3-2.6-1.2-3.2s-2.5,0.4-3,1.6c-1.7,3.9-3.1,8-5,11.8
			c-3.3,6.9-6.9,13.7-13.3,18.4c-3.8,2.8-8,4.1-12.8,2.6c-5.1-1.6-9-4.7-12.5-8.6c-2.8-3.1-5.6-6.3-8.4-9.4
			c-0.4-0.4-0.9-0.8-1.4-1.2c-0.9-0.9-2.3-0.8-3.1,0c-0.1,0.1-0.2,0.2-0.3,0.3c-0.9,1-0.6,2.1,0.2,3.1c1.7,1.8,3.3,3.8,4.8,5.8
			c3.5,5.4,6.5,11,7.5,17.5c0.5,3.3,1.5,6.6,2.2,9.9c0.3,1.4,0.5,2.8,0.5,4.1c-0.2,6.1-0.4,12.2-0.9,18.3c-0.3,2.6-0.8,5.3-1.5,7.9
			c-0.1,1.1-1.1,1.9-2.3,1.8c-2.9,0.1-5.8,0.2-8.6,0.3c-10.3,0.3-20.5,0.6-30.8,1c-1.6,0.1-1.8-0.5-1.8-1.8c0-6.6,0.1-13.3,0-19.9
			c-0.5-23.7-1.1-47.4-1.7-71C1.8,55.2,1.2,39.5,0.7,23.8C0.4,17.1,0.2,10.3,0,3.5C-0.1,0.4,0.3-0.1,3.4,0c14,0.4,28,0.8,42.1,1.3
			C48.2,1.4,49,2.3,49,5.5c0,9.5,0,18.9,0,28.4L49.1,33.9z M55,94.7c-0.6,6,5.4,11.3,10.4,11.3c5.9-0.1,10.7-4.9,10.6-10.9
			c0-0.1,0-0.2,0-0.2c-0.1-6.1-4.9-11-10.9-11.2C59.8,83.5,54.4,89.6,55,94.7z"/>
		<path class="st0" d="M312.9,18c0.8,0,1.6-0.1,2.3-0.1h25c3.2-0.1,6.5,0.4,9.5,1.5c11.1,4.2,12.1,15.1,9.4,22.1
			c-1.3,3.5-4,5.7-7.4,7.2c-0.7,0.3-1.5,0.6-2.4,1c0.3,0.2,0.6,0.3,0.9,0.5c5.2,1.7,7.6,5.6,8.2,10.8c0.4,3.9,0.8,7.8,1.3,11.6
			c0.2,1.7,0.7,3.3,1.2,5.2c-0.4,0.1-0.8,0.2-1.2,0.2c-2.7,0-5.4,0-8.1,0c-1.9,0-2.4-0.3-2.7-2.3c-0.4-3-0.6-6-0.9-9
			c-0.2-1.6-0.2-3.2-0.5-4.7c-0.8-4.6-3.5-7.5-8.1-7.8c-5.1-0.3-10.2-0.1-15.5-0.1v23.4c-1.8,0.6-8.3,0.7-11,0.2L312.9,18z
			 M324,45.5h2.8c4.3,0,8.6,0,12.9-0.1c1,0,1.9-0.2,2.9-0.5c2.5-0.5,4.6-2.1,5.7-4.3c3.2-6.4-0.7-13.2-7.8-13.5
			c-5.3-0.2-10.7,0-16,0c-0.1,0-0.2,0.1-0.5,0.3L324,45.5z"/>
		<path class="st0" d="M145.5,77.9h-11V18c0.5,0,0.9-0.1,1.4-0.1h9.6c0.1,8.1,0,16,0.1,24h26.4c0.2-2.6,0.2-5.2,0.1-7.8
			c0-2.7,0-5.4,0-8.1v-8h11.1v59.9h-11c-0.2-2.1-0.2-4.3-0.1-6.4c0-2.3,0-4.5,0-6.8V51.5h-26.5V77.9z"/>
		<path class="st0" d="M451,77.9h-10.2c0-0.8-0.1-1.6-0.1-2.4c0-8,0-16,0-23.9c0-1,0-2-0.1-2.9c-0.5-5.2-4.9-7.9-9.8-5.8
			c-3.1,1.3-5.2,4.1-5.6,7.4c-0.2,1.3-0.3,2.7-0.3,4c0,7,0,14,0,21c0,0.8,0,1.6,0,2.6h-9.8c-0.5-1.6-0.7-38.8-0.2-42.9h9.6v5.7
			l0.5,0.2l1.2-1.6c3.7-4.7,8.5-6.2,14.2-5.3c3.2,0.5,5.9,2.5,7.5,5.3c0.4,0.7,0.8,1.4,1.3,2.4l1.4-1.8c3.9-5,9.2-6.9,15.4-5.9
			c5.7,0.9,9.6,5,10.5,10.9c0.2,1.4,0.4,2.8,0.4,4.3c0,9,0,17.9,0,26.8c0,0.6-0.1,1.2-0.1,1.9h-10.1c0-0.9,0-1.7,0-2.5
			c0-8,0-16,0-23.9c0-1.1-0.1-2.3-0.2-3.4c-1-5-5.5-7.3-10.1-5.2c-3.4,1.6-4.8,4.6-5.3,8.1c-0.1,1-0.1,2.1-0.1,3.2
			c0,7.1,0,14.1,0,21.2C451,76.2,451,77,451,77.9z"/>
		<path class="st0" d="M219.9,72.5c-0.6,0.7-0.9,1.2-1.3,1.7c-5.8,6.6-16.7,5.8-21.6,2.4c-4.3-2.9-5.6-7.1-5.1-12
			c0.4-4.4,2.8-7.3,6.8-9.1c3.7-1.6,7.7-2,11.6-2.6c2.1-0.3,4.3-0.8,6.4-1.4c2-0.4,3.5-2.2,3.5-4.2c0.3-2.2-0.9-4.2-2.8-5.2
			c-3.5-1.8-7.7-1.6-11,0.6c-1,0.8-1.7,1.8-2.2,3c-0.3,0.7-0.5,1.4-0.6,2.1H194c-0.1-2.2,0.5-4.4,1.7-6.3c1.9-3.1,4.9-5.5,8.4-6.4
			c5.3-1.6,10.9-1.7,16.2-0.2c5.4,1.3,9.2,6.1,9.4,11.6c0.1,1.9,0.1,3.8,0.1,5.6c0,5.8,0,11.6,0,17.4c0,1.4,0,2.9,0.2,4.3
			c0.3,1.4,0.8,2.9,1.3,4.3c-1,0-2,0.1-3,0.1c-1.9,0-3.8,0-5.6,0c-0.8,0.1-1.5-0.4-1.7-1.2C220.7,75.6,220.4,74.3,219.9,72.5z
			 M220.3,56.6c-3.8,1-7.4,1.8-11,2.8c-1.5,0.4-3,0.9-4.4,1.6c-2.4,1.3-3,3.6-2.6,6.2c0.2,2.2,1.9,3.9,4,4.4c2.2,0.6,4.5,0.6,6.7,0
			c4.1-1.1,7.1-4.3,7.4-8.1C220.4,61.2,220.3,58.8,220.3,56.6L220.3,56.6z"/>
		<path class="st0" d="M378.5,47.7h-9.4c0-1,0.2-1.9,0.3-2.9c0.9-3.7,3.4-6.9,6.8-8.5c1.9-1,4-1.7,6.1-2.1c4.3-0.9,8.8-0.7,13,0.5
			c5.7,1.7,9.1,5.8,9.5,11.8c0.2,3.1,0.1,6.2,0.2,9.2c0,4.1,0,8.3,0,12.4c0,3.3-0.5,6.6,1.8,9.8h-10c-1.3-1.4-1.1-3.3-1.7-5.2
			c-0.3,0.2-0.6,0.5-0.9,0.8c-4.3,5-9.8,6.1-16,5.3c-0.3,0-0.6-0.1-0.9-0.2c-9-1.7-11.8-9.1-10.1-16.1c0.7-3.2,3-5.7,6-6.8
			c2.8-1,5.7-1.8,8.7-2.3c2-0.5,4.2-0.6,6.2-1c1.2-0.2,2.3-0.5,3.5-0.9c1.9-0.7,3.3-1.9,3.4-4c0.2-2-0.7-4-2.3-5.1
			c-3-2.1-9.2-1.8-11.9,0.5C379.8,43.8,379.4,44.7,378.5,47.7z M395.4,56.5c-4,1-7.9,2-11.7,3c-1.4,0.3-2.7,0.9-4,1.6
			c-2.3,1.3-2.8,3.6-2.5,6c0.2,2.2,1.8,4,4,4.4c3.2,0.9,6.7,0.5,9.6-1.2c2.6-1.4,4.3-4.1,4.5-7.1C395.6,61,395.5,58.8,395.4,56.5
			L395.4,56.5z"/>
		<path class="st0" d="M264.7,34.6v9.1c-1.7-0.1-3.3-0.1-5,0c-5,0.5-9,4.4-9.6,9.3c-0.2,1.5-0.4,3-0.4,4.5c0,5.9,0,11.9,0,17.8
			c0,0.8,0,1.6,0,2.6h-9.8c-0.4-1.7-0.6-40-0.1-42.9h9.6v6.9l0.4,0.2c0.5-0.7,1-1.4,1.4-2c2.5-3.9,6.9-6.1,11.6-5.7
			C263.5,34.4,264.1,34.4,264.7,34.6z"/>
		<path class="st0" d="M271.8,34.9h9.6c0.5,1.7,0.7,39,0.2,42.9h-9.9L271.8,34.9z"/>
		<path class="st0" d="M271.2,18h11.5v10.8h-11.5V18z"/>
		<path class="st0" d="M136.4,159.7V93.3c0.4-0.1,0.9-0.2,1.3-0.2c3.5,0,7,0,10.8,0c0.2,3,0.1,5.9,0.1,8.8s0,5.8,0,8.8v8.7
			c1.8,0.6,26,0.8,29.5,0.2V93.3h12.1c0.5,1.8,0.6,63.5,0.1,66.4h-12.1v-28.9c-2-0.6-26.5-0.8-29.6-0.2v29.1H136.4z"/>
		<path class="st0" d="M315.4,154v21.7h-10.9c-0.5-1.8-0.6-60.4-0.1-63.7h10.7v7c0.4-0.4,0.9-0.8,1.2-1.2c6.5-9.8,21.5-8.8,28.3-1
			c3.1,3.6,5.1,7.9,5.8,12.6c1.2,6.4,0.7,13.1-1.6,19.2c-4.8,12.2-16.5,14.4-24.5,12c-2.8-0.8-5.3-2.5-7.3-4.7
			C316.5,155.3,316,154.8,315.4,154z M339.7,136.1c-0.2-3.3-0.8-6.5-2.1-9.6c-1.4-3.1-3.5-5.4-7-6.3c-5.4-1.6-11.2,1.1-13.5,6.3
			c-2.8,6-2.9,12.9-0.2,18.9c2,4.8,6.1,6.9,11.2,6.8c4.7-0.1,8.3-2.9,9.9-7.8C338.7,141.7,339.3,139,339.7,136.1L339.7,136.1z"/>
		<path class="st0" d="M443.9,154c-0.3,0.3-0.6,0.5-0.9,0.8c-4.7,5.6-10.8,6.8-17.7,6c-0.6-0.1-1.1-0.2-1.7-0.3
			c-8.8-2-13.4-10.5-10.2-18.9c1.1-2.9,3.4-5.3,6.3-6.5c3.1-1.3,6.5-2.2,9.9-2.6c2.9-0.4,5.8-0.9,8.6-1.4c0.7-0.1,1.5-0.4,2.1-0.7
			c2.9-1.1,4.4-4.3,3.3-7.2c-0.4-1-1-1.9-1.8-2.5c-1-0.9-2.3-1.4-3.6-1.6c-2.1-0.3-4.1-0.3-6.2,0c-3.6,0.6-5.3,2.5-6.6,7.2H415
			c-0.1-2.5,0.6-5,2-7.2c2.1-3.5,5.5-6,9.4-7.1c5.6-1.7,11.6-1.8,17.3-0.3c7,1.8,10.9,6.9,11.1,14.2c0.1,7,0.1,14,0.1,21
			c0,1.4,0,2.8,0,4.3c0,2.9,0,5.7,1.9,8.4c-0.6,0.1-1.2,0.2-1.8,0.3c-2.6,0-5.2-0.1-7.8,0c-1.1,0.2-2.1-0.5-2.3-1.6c0,0,0-0.1,0-0.1
			C444.5,156.8,444.2,155.5,443.9,154z M444.3,136c-4.8,1.2-9.4,2.4-13.9,3.6c-1,0.3-2.1,0.7-3,1.2c-2.6,1.3-4,4.1-3.4,6.9
			c0.3,2.8,2.5,5,5.3,5.2c2,0.3,4,0.3,6,0c5.1-0.7,8.9-5,9.1-10.1C444.4,140.5,444.3,138.2,444.3,136z"/>
		<path class="st0" d="M199.8,133.3c0.2-6.9,3.5-13.3,9-17.5c7.9-6.1,16.8-6.8,25.8-3s12.9,11.2,13.8,20.5c0.5,4.6-0.2,9.2-2,13.5
			c-3.7,8.9-12,14.6-22.9,14.4c-8.3-0.2-15-3.5-19.7-10.6C200.9,146.2,199.7,141.2,199.8,133.3z M211.3,135.8c-0.1,3.4,0.5,6.9,2,10
			c2.2,4.4,5.7,6.8,10.7,6.9s8.7-2.2,10.8-6.7c3.1-6.3,3.1-13.7,0-20.1c-1.8-4.2-6-6.9-10.6-6.7c-4.6-0.2-8.9,2.5-10.8,6.7
			C212,129,211.2,132.4,211.3,135.8L211.3,135.8z"/>
		<path class="st0" d="M294.3,124.7h-10.4c-0.1-0.1-0.3-0.2-0.4-0.3c-2.2-4.9-6.2-6.9-11.8-5.7c-1.4,0.3-2.7,0.8-3.9,1.6
			c-2,1.4-2.5,4.1-1.2,6.1c0.5,0.7,1.2,1.3,2,1.6c2,0.8,4.1,1.4,6.2,1.9c3.2,0.8,6.4,1.3,9.5,2.1c1.8,0.5,3.6,1.2,5.3,2.1
			c3.2,1.6,5.4,4.7,6,8.2c1.5,8-1.6,14-8.4,16.8c-8,3.5-17.2,3.2-25-0.6c-5-2.4-7.9-6.6-8.8-12.1c0-0.4,0-0.8,0-1.1h10.6
			c0.2,0.5,0.4,1,0.6,1.5c0.9,2.9,3.2,5.1,6,5.8c2.9,0.9,6,0.9,8.9,0.2c1-0.2,1.9-0.7,2.7-1.2c2.5-1.5,3.3-4.8,1.8-7.3
			c-0.6-1-1.5-1.7-2.5-2.1c-2.5-0.9-5.1-1.6-7.7-2.1c-3.5-0.9-7-1.6-10.4-2.7c-3.9-1.1-6.9-4.1-7.9-8c-1.9-6.9,0.8-13.4,7.3-16.2
			c7.4-3.3,15.8-3.2,23.1,0.2c3.7,1.7,6.5,4.9,7.6,8.9C294,122.8,294.1,123.6,294.3,124.7z"/>
		<path class="st0" d="M405.7,150.8v8.7c-1.1,0.2-2.2,0.4-3.3,0.5c-2.7,0.2-5.3,0.1-8-0.1c-5.6-0.6-8.8-4.2-9.1-9.9
			c-0.1-1.1,0-2.2,0-3.3c0-8,0-16,0-24.1v-2.9h-7.2c-0.2-2.7-0.3-5.3-0.1-8h7.3v-15h11.2v15h9.5v7.9h-9.3c-0.1,0.9-0.2,1.6-0.2,2.4
			c0,7.7,0,15.4,0,23c0,4.9,1.2,6,6.2,5.8C403.6,150.9,404.5,150.9,405.7,150.8z"/>
		<path class="st0" d="M477,159.7h-10.8c-0.6-1.7-0.8-63.3-0.2-66.5h11L477,159.7z"/>
		<path class="st0" d="M370,159.7h-10.8v-47.7h10.7C370.5,113.8,370.6,156.8,370,159.7z"/>
		<path class="st0" d="M369.9,97.2V108h-11.4V97.2H369.9z"/>
	</g>
</g>
</svg>
